<svg width="228" height="44" viewBox="0 0 228 44" fill="none" xmlns="http://www.w3.org/2000/svg" data-v-4bb04679="" class=""><g clip-path="url(#clip0_3397_8788)" data-v-4bb04679=""><path d="M220.227 26.8145H221.782C222.093 27.5392 222.611 27.8497 223.44 27.8497C224.269 27.8497 224.787 27.5392 225.098 26.8145H226.653C226.238 28.4709 225.098 29.2992 223.44 29.2992C221.782 29.2992 220.642 28.4709 220.227 26.8145ZM221.574 42.4474V43.7933H218.673V30.438H221.574V37.9956L221.989 37.1674L224.994 31.9909V30.5415H227.896V43.8968H224.994V36.9603V36.4427L224.476 37.3745L221.574 42.4474ZM209.138 42.4474V43.7933H206.236V30.438H209.138V37.9956L209.553 37.1674L212.558 31.9909V30.5415H215.46V43.8968H212.558V36.9603V36.4427L212.04 37.3745L209.138 42.4474ZM193.904 30.438H196.805V35.8215H200.018V30.438H202.92V43.7933H200.018V38.3062H196.805V43.7933H193.904V30.438ZM187.893 38.7203L186.545 33.2333L185.198 38.7203H187.893ZM185.302 30.438H188.307L192.142 43.7933H189.136L188.514 40.998H184.784L184.162 43.7933H181.467L185.302 30.438ZM170.689 30.438H179.809V43.7933H176.907V32.9227H173.694V43.7933H170.793V30.438H170.689ZM155.04 30.438H159.393L161.258 38.7203L163.434 30.438H167.58V43.7933H164.782V32.6121L162.087 43.7933H159.911L157.424 32.6121V43.7933H155.04V30.438ZM149.236 37.0639C149.236 35.3039 149.133 34.0615 148.822 33.4403C148.511 32.8192 148.096 32.5086 147.474 32.5086C146.853 32.5086 146.438 32.8192 146.127 33.4403C145.816 34.0615 145.713 35.2003 145.713 37.0639C145.713 38.8239 145.816 40.0662 146.127 40.6874C146.438 41.3086 146.853 41.6192 147.474 41.6192C148.096 41.6192 148.511 41.3086 148.822 40.6874C149.029 40.1697 149.236 38.9274 149.236 37.0639ZM152.345 37.0639C152.345 41.7227 150.687 44.0003 147.474 44.0003C145.816 44.0003 144.676 43.3792 143.847 42.2403C143.018 41.1015 142.604 39.3415 142.604 37.0639C142.604 32.5086 144.262 30.1274 147.474 30.1274C149.029 30.1274 150.273 30.7486 151.102 31.8874C151.931 33.1297 152.345 34.7862 152.345 37.0639ZM132.24 30.438H135.142V36.0286L138.354 30.438H141.36L138.044 35.4074L141.671 43.8968H138.665L136.282 37.685L135.142 39.3415V43.8968H132.24V30.438ZM118.974 38.7203L117.627 33.2333L116.28 38.7203H118.974ZM116.384 30.438H119.389L123.224 43.7933H120.218L119.596 40.998H115.865L115.244 43.7933H112.549L116.384 30.438ZM101.771 30.438H110.891V43.7933H107.989V32.9227H104.673V43.7933H101.771V30.438ZM89.4381 30.438H98.5581V43.7933H95.6563V32.9227H92.4435V43.7933H89.5417V30.438H89.4381ZM82.0799 39.8592L78.0381 30.438H81.0435L83.3235 36.3392L85.2926 30.438H88.0908L84.4635 40.4803C84.049 41.8262 83.5308 42.6545 83.0126 43.1721C82.4944 43.5862 81.769 43.8968 80.8363 43.8968H79.5926V41.4121H80.8363C81.0435 41.4121 81.2508 41.3086 81.4581 41.205C81.5617 40.998 81.769 40.5839 82.0799 39.8592ZM71.7163 32.6121V36.5462H72.649C73.4781 36.5462 73.9963 36.3392 74.2035 36.0286C74.4108 35.6145 74.5144 35.2003 74.5144 34.5792C74.5144 34.0615 74.4108 33.6474 74.2035 33.3368C73.9963 33.0262 73.789 32.8192 73.5817 32.7156C73.3744 32.6121 72.9599 32.6121 72.5454 32.6121H71.7163ZM68.7108 30.438H72.5454C73.6854 30.438 74.6181 30.5415 75.2399 30.7486C75.8617 30.9556 76.3799 31.3697 76.8981 32.0945C77.3126 32.8192 77.5199 33.6474 77.5199 34.6827C77.5199 35.6145 77.3126 36.4427 77.0017 37.1674C76.6908 37.7886 76.1726 38.3062 75.5508 38.5133C74.929 38.8239 73.9963 38.9274 72.649 38.9274H71.6126V43.8968H68.7108V30.438ZM66.8454 30.438V32.7156H61.6635V43.7933H58.7617V30.438H66.8454Z" fill="white" data-v-4bb04679=""></path><path d="M219.917 14.5976L217.637 5.07294L215.357 14.5976H219.917ZM215.46 0H220.642L227.379 23.5012H222.093L220.953 18.6353H214.32L213.18 23.5012H208.413L215.46 0ZM188.515 3.83059V10.7671H190.069C191.52 10.7671 192.349 10.4565 192.764 9.83529C193.179 9.21412 193.386 8.28235 193.386 7.24706C193.386 6.41882 193.179 5.69412 192.868 5.07294C192.557 4.55529 192.142 4.14118 191.728 4.03765C191.313 3.93412 190.691 3.83059 189.966 3.83059H188.515ZM183.333 0H190.069C192.142 0 193.697 0.207059 194.837 0.517647C195.977 0.828235 196.909 1.65647 197.635 2.79529C198.36 4.03765 198.775 5.48706 198.775 7.24706C198.775 9.00706 198.464 10.3529 197.842 11.4918C197.22 12.6306 196.391 13.4588 195.251 13.8729C194.111 14.3906 192.453 14.5976 190.173 14.5976H188.308V23.2941H183.126V0H183.333ZM155.869 0H170.171V4.03765H161.051V9.52471H168.099V13.5624H161.051V19.36H170.171V23.5012H155.869V0ZM118.768 0H126.333L129.649 14.4941L133.38 0H140.739V23.5012H135.868V3.83059L131.1 23.5012H127.369L123.017 3.83059V23.5012H118.768V0ZM92.3404 21.0165V23.3976H87.1586V0H92.3404V13.1482L93.0658 11.6988L98.3513 2.58824V0H103.533V23.5012H98.3513V11.2847V10.3529L97.5222 11.9059L92.3404 21.0165ZM63.6331 3.83059V10.7671H65.2913C66.7422 10.7671 67.5713 10.4565 67.9858 9.83529C68.4004 9.11059 68.6077 8.28235 68.6077 7.24706C68.6077 6.41882 68.4004 5.69412 68.0895 5.07294C67.7786 4.55529 67.364 4.14118 66.9495 4.03765C66.5349 3.93412 65.9131 3.83059 65.1877 3.83059H63.6331ZM58.4513 0H65.2913C67.364 0 68.9186 0.207059 70.0586 0.517647C71.1986 0.828235 72.1313 1.65647 72.8568 2.79529C73.5822 4.03765 73.9967 5.48706 73.9967 7.24706C73.9967 9.00706 73.6858 10.3529 73.064 11.4918C72.4422 12.6306 71.6131 13.4588 70.4731 13.8729C69.3331 14.3906 67.6749 14.5976 65.3949 14.5976H63.5295V23.2941H58.3477V0H58.4513Z" fill="white" data-v-4bb04679=""></path><path fill-rule="evenodd" clip-rule="evenodd" d="M0 43.7929V0H43.8382V43.7929H0ZM26.8418 41.4118L23.0073 37.5812V41.4118H26.8418ZM23.0073 30.2306V34.3718L30.0545 41.5153H34.2L23.0073 30.2306ZM17.8255 41.5153H20.7273V22.9835H17.8255V41.5153ZM2.28 17.8071V20.7059H23.5255C30.8836 20.7059 37.5164 18.0141 41.5582 14.5976V10.6635C37.4127 14.5976 30.8836 17.8071 21.1418 17.8071H2.28ZM41.5582 26.7106L35.5473 20.7059C34.7606 21.0552 33.8265 21.3308 32.9315 21.5949C32.7653 21.6439 32.6005 21.6925 32.4382 21.7412L41.5582 30.8518V26.7106ZM41.5582 17.4965C40.4182 18.3247 39.1745 19.1529 37.8273 19.7741L41.5582 23.5012V17.4965ZM28.1305 3.76312C29.2036 3.27626 30.0954 2.87161 30.9873 2.27765H2.28V5.17647H17.9291C22.5927 5.17647 25.7018 4.65882 27.9818 3.83059L28.1305 3.76312ZM5.18182 22.9835H2.28V41.4118H5.18182V22.9835ZM20.2089 10.3529H2.28V7.45412H17.9291C22.6964 7.45412 26.1164 6.93647 28.8109 5.90118C31.2982 4.96941 33.06 3.72706 34.8218 2.27765H39.4614C35.8953 6.37467 28.7549 10.3529 20.2089 10.3529ZM2.28 12.6305H20.2089C29.7614 12.6305 37.571 8.23636 41.5582 3.30612V7.45412C37.8273 11.5953 31.7127 15.5294 21.1418 15.5294H2.28V12.6305ZM23.0073 27.1247L37.4127 41.5153V41.6188H41.5582V41.5229L23.1241 23.0871H23.0073V27.1247ZM29.8473 22.4659L41.5582 34.1647V38.3001L26.2382 22.9786C27.4842 22.8779 28.7009 22.707 29.8473 22.4659ZM7.46182 41.4118H10.3633V22.9835H7.46182V41.4118ZM15.5455 22.9835V41.4118H12.6433V22.9835H15.5455Z" fill="white" data-v-4bb04679=""></path></g><defs data-v-4bb04679=""><clipPath id="clip0_3397_8788" data-v-4bb04679=""><rect width="228" height="44" fill="white" data-v-4bb04679=""></rect></clipPath></defs></svg>